<?xml version="1.0" encoding="UTF-8"?>
<svg id="Calque_2" data-name="Calque 2" xmlns="http://www.w3.org/2000/svg" viewBox="0 0 115.49 43.77">
  <defs>
    <style>
      .cls-1 {
        fill: #231f20;
        stroke-width: 0px;
      }

      .cls-2 {
        fill: none;
        stroke: #231f20;
        stroke-miterlimit: 10;
        stroke-width: .28px;
      }
    </style>
  </defs>
  <g id="Layer_2" data-name="Layer 2">
    <g>
      <path class="cls-1" d="M39.13,28.81v-15.68c0-1.55-.9-2.98-2.24-3.75L23.23,1.49l-1.58-.91c-1.35-.78-3.01-.78-4.36,0l-1.71,1-5.21,3.03-3.89,2.26-4.3,2.5C.84,10.15.02,11.58.01,13.12v15.72s0,1.86,0,1.86c.02,1.55.83,2.96,2.17,3.73l1.69.96,5.25,3.03,3.92,2.26,4.33,2.5c1.34.78,3,.78,4.35,0l4.35-2.5,3.92-2.26,5.25-3.03,1.73-1c1.35-.78,2.18-2.22,2.18-3.78v-1.81ZM29.34,34.46l-.03-11.86c0-.5-.54-.81-.98-.56l-2.46,1.42c-.2.12-.33.33-.33.57l.04,12.6-4.94,2.85c-.67.39-1.5.39-2.18,0l-5.69-3.28.02-7.41c0-.23-.12-.45-.33-.57l-2.46-1.42c-.43-.25-.98.06-.98.56l-.02,6.66-4.19-2.43c-.67-.39-1.09-1.11-1.08-1.89l.05-13.15v-2.51c0-.78.41-1.49,1.08-1.88l5.65-3.28,10.22,5.9c.2.12.45.12.65,0l2.44-1.42c.43-.25.43-.88,0-1.13l-9.57-5.53,4.15-2.41c.67-.39,1.51-.39,2.18,0l13.64,7.88c.67.39,1.09,1.1,1.09,1.88l.04,15.67c0,.78-.41,1.5-1.09,1.89l-4.93,2.85Z"/>
      <g>
        <g>
          <path class="cls-1" d="M57.71,7.68h-4.05v2.15h3.45v1.52h-3.45v3.55h-1.71V6.16h5.76v1.52Z"/>
          <path class="cls-1" d="M65.22,14.9h-1.78l-.52-1.55h-3.11l-.53,1.55h-1.78l3.18-8.74h1.34l3.19,8.74ZM62.47,11.92l-1.07-3.18-1.11,3.18h2.17Z"/>
          <path class="cls-1" d="M72.63,12.38c0,.79-.25,1.41-.74,1.85s-1.14.66-1.94.66h-3.66V6.16h3.51c.84,0,1.5.22,1.98.66s.72,1.04.72,1.79c0,.44-.11.82-.34,1.13-.23.32-.47.54-.74.67.8.38,1.2,1.03,1.2,1.97ZM70.51,9.42c.2-.18.29-.43.29-.73s-.1-.55-.29-.73c-.2-.18-.48-.28-.84-.28h-1.67v2.01h1.67c.36,0,.64-.09.84-.28ZM70.63,13.07c.2-.2.3-.46.3-.77s-.1-.57-.3-.77c-.2-.2-.48-.3-.85-.3h-1.78v2.15h1.78c.37,0,.65-.1.85-.31Z"/>
          <path class="cls-1" d="M79.4,12.25c0,.84-.26,1.51-.77,2-.51.49-1.16.73-1.96.73s-1.45-.24-1.96-.72c-.51-.48-.77-1.14-.77-1.98,0-.56.25-1.33.74-2.33l1.84-3.78h1.74l-1.82,3.61c.18-.07.4-.11.65-.11.62,0,1.16.24,1.62.71.45.48.68,1.1.68,1.88ZM77.8,12.26c0-.39-.1-.69-.31-.93-.21-.23-.48-.35-.82-.35s-.61.11-.82.34c-.21.23-.31.54-.31.93s.1.7.31.93c.21.23.48.34.82.34s.61-.12.82-.34c.21-.23.31-.54.31-.93Z"/>
          <path class="cls-1" d="M84.67,14.9h-1.6v-7.02l-1.78,1.55v-1.72l1.78-1.55h1.6v8.74Z"/>
          <path class="cls-1" d="M92.77,8.79c0,.57-.24,1.35-.72,2.33l-1.85,3.78h-1.73l1.82-3.61c-.18.07-.4.11-.65.11-.62,0-1.16-.24-1.62-.71s-.69-1.1-.69-1.88c0-.84.26-1.51.77-2,.51-.49,1.16-.73,1.96-.73s1.45.24,1.96.72c.51.48.77,1.14.77,1.98ZM90.86,9.73c.21-.23.31-.54.31-.93s-.1-.7-.31-.93c-.21-.23-.48-.34-.82-.34s-.61.11-.82.34c-.21.23-.31.54-.31.93s.1.69.31.93c.21.23.48.35.82.35s.61-.12.82-.34Z"/>
        </g>
        <g>
          <path class="cls-1" d="M55.66,23.55h-2.84v2.32h3.3v.71h-4.16v-6.55h4.11v.71h-3.25v2.11h2.84v.71Z"/>
          <path class="cls-1" d="M62.22,26.57h-.87l-3.3-5.05v5.05h-.87v-6.55h.87l3.31,5.07v-5.07h.86v6.55Z"/>
          <path class="cls-1" d="M68.59,25.71c-.22.32-.53.56-.93.71-.4.16-.86.24-1.39.24s-1.01-.12-1.42-.37-.73-.61-.96-1.07-.34-1-.35-1.61v-.57c0-.99.23-1.75.69-2.29s1.11-.81,1.94-.81c.68,0,1.23.18,1.65.52s.67.84.76,1.49h-.86c-.16-.87-.68-1.3-1.55-1.3-.58,0-1.02.2-1.32.61s-.45,1-.45,1.77v.54c0,.73.17,1.32.5,1.75s.79.65,1.36.65c.32,0,.61-.04.85-.11s.44-.19.6-.36v-1.47h-1.52v-.71h2.37v2.4Z"/>
          <path class="cls-1" d="M70.96,26.57h-.86v-6.55h.86v6.55Z"/>
          <path class="cls-1" d="M77.57,26.57h-.87l-3.3-5.05v5.05h-.87v-6.55h.87l3.31,5.07v-5.07h.86v6.55Z"/>
          <path class="cls-1" d="M82.8,23.55h-2.84v2.32h3.3v.71h-4.16v-6.55h4.11v.71h-3.25v2.11h2.84v.71Z"/>
          <path class="cls-1" d="M88.04,23.55h-2.84v2.32h3.3v.71h-4.16v-6.55h4.11v.71h-3.25v2.11h2.84v.71Z"/>
          <path class="cls-1" d="M91.97,23.92h-1.54v2.65h-.87v-6.55h2.17c.74,0,1.3.17,1.7.5s.6.82.6,1.47c0,.41-.11.76-.33,1.07s-.53.53-.92.68l1.54,2.78v.05h-.93l-1.42-2.65ZM90.43,23.22h1.33c.43,0,.77-.11,1.02-.33.25-.22.38-.52.38-.89,0-.4-.12-.72-.36-.93-.24-.22-.59-.33-1.05-.33h-1.32v2.49Z"/>
          <path class="cls-1" d="M96.17,26.57h-.86v-6.55h.86v6.55Z"/>
          <path class="cls-1" d="M102.78,26.57h-.87l-3.3-5.05v5.05h-.87v-6.55h.87l3.31,5.07v-5.07h.86v6.55Z"/>
          <path class="cls-1" d="M109.15,25.71c-.22.32-.53.56-.93.71-.4.16-.86.24-1.39.24s-1.01-.12-1.42-.37-.73-.61-.96-1.07-.34-1-.35-1.61v-.57c0-.99.23-1.75.69-2.29s1.11-.81,1.94-.81c.68,0,1.23.18,1.65.52s.67.84.76,1.49h-.86c-.16-.87-.68-1.3-1.55-1.3-.58,0-1.02.2-1.32.61s-.45,1-.45,1.77v.54c0,.73.17,1.32.5,1.75s.79.65,1.36.65c.32,0,.61-.04.85-.11s.44-.19.6-.36v-1.47h-1.52v-.71h2.37v2.4Z"/>
          <path class="cls-1" d="M51.96,37.62v-6.55h1.85c.57,0,1.07.13,1.51.38s.78.61,1.01,1.07.36,1,.36,1.6v.42c0,.62-.12,1.16-.36,1.62s-.58.82-1.02,1.07-.96.38-1.54.38h-1.81ZM52.82,31.78v5.14h.91c.67,0,1.18-.21,1.55-.62.37-.42.56-1,.56-1.77v-.38c0-.74-.17-1.32-.52-1.73s-.84-.62-1.49-.63h-1.01Z"/>
          <path class="cls-1" d="M61.7,34.6h-2.84v2.32h3.3v.71h-4.16v-6.55h4.11v.71h-3.25v2.11h2.84v.71Z"/>
          <path class="cls-1" d="M65.16,34.71c-.74-.21-1.28-.48-1.62-.78-.34-.31-.51-.69-.51-1.15,0-.52.21-.94.62-1.28.41-.34.95-.51,1.61-.51.45,0,.85.09,1.2.26s.63.41.82.72.29.64.29,1h-.87c0-.4-.13-.71-.38-.94-.25-.23-.61-.34-1.07-.34-.43,0-.76.09-1,.28s-.36.45-.36.78c0,.27.11.49.34.68.23.18.61.35,1.16.51s.97.32,1.28.51c.31.19.54.4.68.65s.22.54.22.87c0,.53-.21.96-.62,1.27-.41.32-.97.48-1.66.48-.45,0-.87-.09-1.26-.26-.39-.17-.69-.41-.9-.71s-.32-.64-.32-1.02h.87c0,.4.15.71.44.94.29.23.68.34,1.17.34.46,0,.8-.09,1.05-.28s.36-.44.36-.76-.11-.57-.34-.74c-.22-.18-.63-.35-1.22-.52Z"/>
          <path class="cls-1" d="M69.62,37.62h-.86v-6.55h.86v6.55Z"/>
          <path class="cls-1" d="M76.03,36.77c-.22.32-.53.56-.93.71-.4.16-.86.24-1.39.24s-1.01-.12-1.42-.37-.73-.61-.96-1.07-.34-1-.35-1.61v-.57c0-.99.23-1.75.69-2.29s1.11-.81,1.94-.81c.68,0,1.23.18,1.65.52s.67.84.76,1.49h-.86c-.16-.87-.68-1.3-1.55-1.3-.58,0-1.02.2-1.32.61s-.45,1-.45,1.77v.54c0,.73.17,1.32.5,1.75s.79.65,1.36.65c.32,0,.61-.04.85-.11s.44-.19.6-.36v-1.47h-1.52v-.71h2.37v2.4Z"/>
          <path class="cls-1" d="M82.5,37.62h-.87l-3.3-5.05v5.05h-.87v-6.55h.87l3.31,5.07v-5.07h.86v6.55Z"/>
          <path class="cls-1" d="M91.35,34.56c0,.64-.11,1.2-.32,1.68s-.52.84-.92,1.09-.86.38-1.39.38-.97-.13-1.37-.38c-.4-.25-.71-.61-.93-1.08s-.33-1.01-.34-1.63v-.47c0-.63.11-1.19.33-1.67s.53-.85.93-1.11c.4-.25.86-.38,1.37-.38s.99.13,1.39.38.71.62.92,1.1c.22.48.32,1.04.32,1.68v.41ZM90.5,34.14c0-.78-.16-1.37-.47-1.79-.31-.41-.75-.62-1.31-.62s-.98.21-1.29.62c-.31.42-.47.99-.48,1.73v.48c0,.75.16,1.34.47,1.77.32.43.75.65,1.31.65s.99-.2,1.3-.61c.31-.4.46-.99.47-1.75v-.49Z"/>
          <path class="cls-1" d="M96.26,34.73h-2.75v2.89h-.86v-6.55h4.06v.71h-3.19v2.24h2.75v.71Z"/>
          <path class="cls-1" d="M101.35,34.73h-2.75v2.89h-.86v-6.55h4.06v.71h-3.19v2.24h2.75v.71Z"/>
          <path class="cls-1" d="M103.76,37.62h-.86v-6.55h.86v6.55Z"/>
          <path class="cls-1" d="M110.15,35.55c-.08.69-.34,1.23-.77,1.6s-1,.56-1.72.56c-.77,0-1.39-.28-1.86-.83s-.7-1.3-.7-2.23v-.63c0-.61.11-1.14.33-1.61s.53-.82.92-1.06c.4-.25.86-.37,1.39-.37.7,0,1.25.19,1.67.58.42.39.66.93.73,1.61h-.87c-.07-.52-.24-.9-.49-1.14-.25-.24-.6-.35-1.05-.35-.55,0-.98.2-1.3.61-.31.41-.47.99-.47,1.74v.64c0,.71.15,1.28.45,1.7.3.42.71.63,1.25.63.48,0,.85-.11,1.1-.33s.43-.6.51-1.14h.87Z"/>
          <path class="cls-1" d="M115.03,34.6h-2.84v2.32h3.3v.71h-4.16v-6.55h4.11v.71h-3.25v2.11h2.84v.71Z"/>
        </g>
      </g>
      <line class="cls-2" x1="45.37" y1=".03" x2="45.37" y2="43.77"/>
    </g>
  </g>
</svg>