<?xml version="1.0" encoding="UTF-8"?>
<svg id="Calque_2" data-name="Calque 2" xmlns="http://www.w3.org/2000/svg" viewBox="0 0 35.12 50.64">
  <defs>
    <style>
      .cls-1 {
        fill: #231f20;
        stroke-width: 0px;
      }
    </style>
  </defs>
  <g id="Layer_2" data-name="Layer 2">
    <g>
      <path class="cls-1" d="M35.11,25.85v-14.07c0-1.39-.81-2.67-2.01-3.37L20.85,1.34l-1.42-.82c-1.21-.7-2.7-.7-3.91,0l-1.54.89-4.68,2.72-3.49,2.03-3.86,2.24C.75,9.11.01,10.39.01,11.78v14.1s0,1.67,0,1.67c.01,1.39.74,2.66,1.95,3.35l1.51.87,4.71,2.72,3.52,2.03,3.88,2.24c1.21.7,2.69.7,3.9,0l3.9-2.25,3.52-2.03,4.71-2.72,1.56-.9c1.21-.7,1.96-1.99,1.95-3.39v-1.62ZM26.32,30.93l-.03-10.64c0-.45-.49-.73-.88-.51l-2.21,1.27c-.18.1-.29.3-.29.51l.03,11.31-4.43,2.56c-.6.35-1.35.35-1.95,0l-5.11-2.95.02-6.65c0-.21-.11-.4-.29-.51l-2.21-1.28c-.39-.23-.88.06-.88.51l-.02,5.98-3.76-2.18c-.6-.35-.97-1-.97-1.69l.04-11.8v-2.25c0-.7.37-1.34.97-1.69l5.07-2.95,9.17,5.29c.18.1.41.1.59,0l2.19-1.27c.39-.23.39-.79,0-1.01l-8.59-4.96,3.72-2.16c.6-.35,1.35-.35,1.96,0l12.24,7.07c.6.35.97.99.98,1.69l.04,14.07c0,.7-.37,1.35-.98,1.7l-4.43,2.56Z"/>
      <g>
        <path class="cls-1" d="M4.95,44.46H1.47v1.84h2.96v1.3H1.47v3.04H0v-7.49h4.95v1.3Z"/>
        <path class="cls-1" d="M11.4,50.64h-1.53l-.44-1.32h-2.67l-.45,1.32h-1.53l2.73-7.49h1.15l2.74,7.49ZM9.04,48.08l-.92-2.72-.95,2.72h1.87Z"/>
        <path class="cls-1" d="M17.77,48.48c0,.68-.21,1.21-.63,1.59s-.98.57-1.67.57h-3.14v-7.49h3.02c.72,0,1.29.19,1.7.57s.62.89.62,1.53c0,.38-.1.7-.29.97-.19.27-.41.46-.64.57.69.32,1.03.88,1.03,1.68ZM15.95,45.94c.17-.16.25-.37.25-.62s-.08-.47-.25-.63c-.17-.16-.41-.24-.72-.24h-1.43v1.72h1.43c.31,0,.55-.08.72-.24ZM16.05,49.07c.17-.17.25-.4.25-.66s-.08-.49-.25-.66c-.17-.17-.41-.26-.73-.26h-1.53v1.84h1.53c.32,0,.56-.09.73-.26Z"/>
        <path class="cls-1" d="M23.58,48.32c0,.72-.22,1.28-.66,1.69-.44.41-1,.62-1.68.62s-1.24-.2-1.68-.61c-.44-.41-.66-.97-.66-1.68,0-.47.21-1.13.63-1.98l1.58-3.21h1.5l-1.56,3.07c.15-.06.34-.09.56-.09.53,0,1,.2,1.39.6.39.4.59.94.59,1.6ZM22.21,48.34c0-.33-.09-.59-.27-.79-.18-.2-.41-.3-.7-.3s-.52.1-.7.29c-.18.19-.27.46-.27.79s.09.6.27.79c.18.19.41.29.7.29s.52-.1.7-.29c.18-.19.27-.46.27-.79Z"/>
        <path class="cls-1" d="M28.11,50.64h-1.37v-6.01l-1.53,1.32v-1.47l1.53-1.32h1.37v7.49Z"/>
        <path class="cls-1" d="M35.07,45.45c0,.49-.21,1.15-.62,1.98l-1.59,3.21h-1.49l1.56-3.06c-.15.06-.34.09-.56.09-.53,0-1-.2-1.39-.6s-.59-.93-.59-1.59c0-.72.22-1.28.66-1.69.44-.41,1-.62,1.68-.62s1.24.2,1.68.61c.44.41.66.97.66,1.68ZM33.43,46.25c.18-.19.27-.46.27-.79s-.09-.6-.27-.79c-.18-.19-.41-.29-.7-.29s-.52.1-.7.29c-.18.19-.27.46-.27.79s.09.59.27.79c.18.2.41.3.7.3s.52-.1.7-.29Z"/>
      </g>
    </g>
  </g>
</svg>