<svg width="38" height="19" viewBox="0 0 38 19" fill="none" xmlns="http://www.w3.org/2000/svg">
<path d="M36.0938 0.5C36.5969 0.5 37 0.903095 37 1.40625V17.3438C37 17.8469 36.5969 18.25 36.0938 18.25H20.1875V0.5H36.0938ZM1.40625 0.5H17.3125V18.25H1.40625C0.903095 18.25 0.5 17.8469 0.5 17.3438V1.40625C0.5 0.903095 0.903095 0.5 1.40625 0.5ZM28.5938 3.25C27.9309 3.25 27.3906 3.79026 27.3906 4.45312V4.89062H24.1406C23.4778 4.89062 22.9375 5.43089 22.9375 6.09375V7.03125C22.9375 7.69411 23.4778 8.23438 24.1406 8.23438H30.0176C29.7663 8.65829 29.452 9.08968 29.0791 9.52051C28.8555 9.26361 28.6512 9.00673 28.4678 8.75H28.4668C28.1272 8.27175 27.493 8.11204 26.9707 8.35742L26.8691 8.41113L26.4414 8.66309L26.4385 8.66504L26.0596 8.89258C25.5045 9.22183 25.3084 9.93795 25.6191 10.501L25.6885 10.6113C25.9598 10.9983 26.2605 11.3804 26.5889 11.7568C26.3754 11.9111 26.1562 12.064 25.9287 12.2119L25.5371 12.458C24.9773 12.7993 24.7977 13.5209 25.1182 14.082V14.0811L25.5811 14.8955L25.582 14.8984C25.9008 15.4514 26.5822 15.6524 27.1426 15.3877L27.2529 15.3281L27.2559 15.3262C27.899 14.9311 28.5019 14.509 29.0674 14.0742C29.6366 14.5134 30.2435 14.9308 30.8789 15.3242V15.3252L30.8838 15.3281C31.426 15.6553 32.1216 15.5096 32.4863 15.0039L32.5547 14.8984L32.5557 14.8955L33.0186 14.0811L33.0732 13.9717C33.2969 13.4638 33.1489 12.8668 32.7061 12.5283L32.6064 12.459L32.6045 12.458L32.2246 12.2178C31.9977 12.0696 31.7739 11.9146 31.5527 11.7549C32.5297 10.6284 33.2637 9.43979 33.6807 8.23438H33.9844C34.6472 8.23438 35.1875 7.69411 35.1875 7.03125V6.09375C35.1875 5.43089 34.6472 4.89062 33.9844 4.89062H30.7344V4.45312C30.7344 3.79026 30.1941 3.25 29.5312 3.25H28.5938ZM7.48828 3.18555C7.03574 3.18555 6.63229 3.43225 6.4248 3.82129L6.34766 3.99609L6.34668 3.99902L2.97754 13.9072L2.97656 13.9102C2.71727 14.688 3.29432 15.5 4.11914 15.5H5.46094C5.96544 15.5 6.40714 15.1813 6.58301 14.7246L6.61523 14.6279L7.04492 13.127H9.82129L10.2666 14.6377C10.3401 14.8865 10.4924 15.1054 10.7002 15.2607C10.8818 15.3965 11.0976 15.4777 11.3223 15.4961L11.4199 15.5H12.7617C13.5434 15.5 14.0909 14.7837 13.9434 14.0557L13.9043 13.9102L13.9033 13.9072L10.5342 3.99902L10.5322 3.99316L10.4551 3.82129C10.2473 3.43809 9.84206 3.18555 9.39258 3.18555H7.48828ZM8.88477 9.91211H7.9873L8.43945 8.38281L8.88477 9.91211Z" fill="#2B2B2B" stroke="black"/>
</svg>
