<svg width="60" height="60" viewBox="0 0 60 60" fill="none" xmlns="http://www.w3.org/2000/svg">
<path d="M15 29.0166V44.9999H30.9833L27.65 41.6666H18.3333V32.3499L15 29.0166Z" fill="#2B2B2B"/>
<path d="M58.1166 53.8167L53.3333 48.9667V53.3333H6.66661V46.4167H9.99995V43.75H6.66661V32.6667H9.99995V30H6.66661V19.3333H9.99995V16.6667H6.66661V7.35001L33.2333 33.7667V29.0667L6.18328 2.15001C5.95016 1.91496 5.65233 1.75466 5.32775 1.68954C5.00317 1.62443 4.66655 1.65745 4.36081 1.78439C4.05507 1.91134 3.79406 2.12645 3.61106 2.40232C3.42806 2.67819 3.33135 3.0023 3.33328 3.33334V55C3.33328 55.442 3.50887 55.866 3.82144 56.1785C4.134 56.4911 4.55792 56.6667 4.99995 56.6667H56.9333C57.2643 56.6686 57.5884 56.5719 57.8643 56.3889C58.1402 56.2059 58.3553 55.9449 58.4822 55.6391C58.6092 55.3334 58.6422 54.9968 58.5771 54.6722C58.512 54.3476 58.3517 54.0498 58.1166 53.8167Z" fill="#2B2B2B"/>
<path d="M40 49.9999H46.6666C47.5507 49.9999 48.3985 49.6488 49.0236 49.0236C49.6488 48.3985 50 47.5507 50 46.6666V14.4999L46.1666 7.44995C45.8702 6.93632 45.442 6.51108 44.9264 6.2181C44.4108 5.92513 43.8263 5.77503 43.2333 5.78328C42.6269 5.78809 42.0332 5.95825 41.5164 6.27543C40.9995 6.59262 40.5789 7.0448 40.3 7.58328L36.6666 14.5333V46.6666C36.6666 47.5507 37.0178 48.3985 37.6429 49.0236C38.2681 49.6488 39.1159 49.9999 40 49.9999ZM40 15.3333L43.2333 9.04995L46.6666 15.3499V39.9999H40V15.3333ZM40 42.7166H46.6666V46.7833H40V42.7166Z" fill="#2B2B2B"/>
</svg>
