<svg width="60" height="60" viewBox="0 0 60 60" fill="none" xmlns="http://www.w3.org/2000/svg">
<path d="M56.25 35.625H48.75V28.125H45V45H15V15H31.875V11.25H24.375V3.75H20.625V11.25H15C14.0054 11.25 13.0516 11.6451 12.3483 12.3483C11.6451 13.0516 11.25 14.0054 11.25 15V20.625H3.75V24.375H11.25V35.625H3.75V39.375H11.25V45C11.25 45.9946 11.6451 46.9484 12.3483 47.6516C13.0516 48.3549 14.0054 48.75 15 48.75H20.625V56.25H24.375V48.75H35.625V56.25H39.375V48.75H45C45.9941 48.7485 46.9471 48.3529 47.65 47.65C48.3529 46.9471 48.7485 45.9941 48.75 45V39.375H56.25V35.625Z" fill="#2B2B2B"/>
<path d="M48.75 3.75C46.7615 3.75199 44.855 4.5428 43.4489 5.94889C42.0428 7.35498 41.252 9.26149 41.25 11.25C41.2574 12.5851 41.6247 13.8935 42.3131 15.0375L36.7238 20.625H20.625V39.375H39.375V23.2762L44.9625 17.6888C46.1066 18.3766 47.4151 18.7432 48.75 18.75C50.7391 18.75 52.6468 17.9598 54.0533 16.5533C55.4598 15.1468 56.25 13.2391 56.25 11.25C56.25 9.26088 55.4598 7.35322 54.0533 5.9467C52.6468 4.54018 50.7391 3.75 48.75 3.75ZM35.625 35.625H24.375V24.375H35.625V35.625ZM48.75 15C48.0083 15 47.2833 14.7801 46.6666 14.368C46.0499 13.956 45.5693 13.3703 45.2855 12.6851C45.0016 11.9998 44.9274 11.2458 45.0721 10.5184C45.2167 9.79098 45.5739 9.1228 46.0984 8.59835C46.6228 8.0739 47.291 7.71675 48.0184 7.57205C48.7458 7.42736 49.4998 7.50162 50.1851 7.78545C50.8703 8.06928 51.456 8.54993 51.868 9.16661C52.2801 9.7833 52.5 10.5083 52.5 11.25C52.5 12.2446 52.1049 13.1984 51.4016 13.9017C50.6984 14.6049 49.7446 15 48.75 15Z" fill="#2B2B2B"/>
</svg>
