<svg width="60" height="60" viewBox="0 0 60 60" fill="none" xmlns="http://www.w3.org/2000/svg">
<path d="M55 5V55H5V5H55ZM55 0H5C3.67392 0 2.40215 0.526784 1.46447 1.46447C0.526784 2.40215 0 3.67392 0 5L0 55C0 56.3261 0.526784 57.5979 1.46447 58.5355C2.40215 59.4732 3.67392 60 5 60H55C56.3261 60 57.5979 59.4732 58.5355 58.5355C59.4732 57.5979 60 56.3261 60 55V5C60 3.67392 59.4732 2.40215 58.5355 1.46447C57.5979 0.526784 56.3261 0 55 0Z" fill="#2B2B2B"/>
<path d="M45 42.5H15V47.5H45V42.5ZM32.5 47.5H27.5V55H32.5V47.5Z" fill="#2B2B2B"/>
<path fill-rule="evenodd" clip-rule="evenodd" d="M23.3175 17.7225L23.18 17.5H5V12.5H23.165C23.6043 11.7392 24.2362 11.1075 24.9972 10.6687C25.7583 10.2298 26.6215 9.99915 27.5 10H32.5C33.3772 10.0005 34.2389 10.2317 34.9985 10.6705C35.7581 11.1094 36.3889 11.7403 36.8275 12.5H57.5V17.5H36.82C36.1658 18.6187 35.1028 19.4398 33.855 19.79L30 27.5L26.145 19.79C24.984 19.4643 23.9799 18.7301 23.3175 17.7225ZM30 17.5H27.49H32.51H30ZM32.5 15C32.5 15.663 32.2366 16.2989 31.7678 16.7678C31.2989 17.2366 30.663 17.5 30 17.5C29.337 17.5 28.7011 17.2366 28.2322 16.7678C27.7634 16.2989 27.5 15.663 27.5 15C27.5 14.337 27.7634 13.7011 28.2322 13.2322C28.7011 12.7634 29.337 12.5 30 12.5C30.663 12.5 31.2989 12.7634 31.7678 13.2322C32.2366 13.7011 32.5 14.337 32.5 15Z" fill="#2B2B2B"/>
</svg>
