<svg width="60" height="60" viewBox="0 0 60 60" fill="none" xmlns="http://www.w3.org/2000/svg">
<path d="M30 2C30.6476 2 31.2937 2.02934 31.9414 2.07812L34.5586 9.44141L34.8975 10.3955L35.8672 10.6865C36.9702 11.0181 38.0415 11.4467 39.0684 11.9668L39.5059 12.1953L40.3984 12.6768L41.3135 12.2402L48.3555 8.88672C49.3346 9.74122 50.2538 10.6617 51.1074 11.6416L47.7607 18.6865L47.3291 19.5957L47.8018 20.4844C48.4199 21.6456 48.9296 22.865 49.3174 24.1387L49.6113 25.1025L50.5605 25.4404L57.9219 28.0576C57.9701 28.7052 58 29.352 58 30.001C58 30.6489 57.9696 31.2947 57.9219 31.9414L50.5625 34.5596L49.6133 34.8975L49.3193 35.8613C48.9309 37.1371 48.4224 38.3594 47.8047 39.5078L47.3242 40.3994L47.7598 41.3145L51.1074 48.3545C50.2537 49.3342 49.3357 50.2542 48.3564 51.1074L41.3125 47.7607L40.4033 47.3291L39.5137 47.8018C38.3531 48.4195 37.132 48.9293 35.8594 49.3174L34.8965 49.6113L34.5586 50.5596L31.9385 57.9219C31.2919 57.9701 30.6465 58 29.998 58C29.3482 58 28.7012 57.9697 28.0537 57.9219L25.4355 50.5635L25.0986 49.6162L24.1367 49.3223L23.6602 49.1699C22.5552 48.8023 21.4975 48.347 20.4854 47.8047L19.5938 47.3271L18.6807 47.7617L11.6416 51.1133C10.6608 50.2599 9.74096 49.3415 8.8877 48.3623L12.2402 41.3184L12.6748 40.4053L12.1973 39.5146C11.5778 38.3586 11.0735 37.1426 10.6846 35.8652L10.3906 34.9014L9.44141 34.5635L2.07715 31.9424C2.02859 31.296 2 30.6503 2 30.0029C2 29.3558 2.02928 28.7082 2.07812 28.0596L9.44238 25.4355L10.3916 25.0977L10.6846 24.1348C11.0735 22.8574 11.5778 21.6414 12.1973 20.4854L12.6748 19.5938L12.2402 18.6807L8.88672 11.6406C9.74132 10.6596 10.6607 9.73931 11.6406 8.88574L18.6865 12.2402L19.5996 12.6758L20.4912 12.1973C21.6452 11.5782 22.8604 11.0734 24.1387 10.6846L25.1035 10.3916L25.4414 9.44141L28.0586 2.07715C28.7051 2.02858 29.3514 2 30 2ZM29.9961 18.4688C27.1292 18.4693 24.3725 19.5375 22.2578 21.4531L21.8428 21.8477C19.6812 24.0104 18.4673 26.9432 18.4678 30.001L18.4814 30.5732C18.614 33.2332 19.6641 35.7664 21.4521 37.7402L21.8467 38.1543C22.7837 39.0909 23.8742 39.8577 25.0693 40.4229L25.5879 40.6533C26.812 41.1601 28.1131 41.4509 29.4336 41.5156L30 41.5293C32.8669 41.5287 35.6235 40.4605 37.7383 38.5449L38.1533 38.1504C40.3149 35.9876 41.5288 33.0549 41.5283 29.9971C41.5277 27.13 40.4597 24.3727 38.5439 22.2578L38.1494 21.8438C36.1218 19.817 33.4172 18.6232 30.5674 18.4824L29.9961 18.4688Z" stroke="#2B2B2B" stroke-width="4"/>
</svg>
