<svg width="60" height="60" viewBox="0 0 60 60" fill="none" xmlns="http://www.w3.org/2000/svg">
<g clip-path="url(#clip0_2498_397)">
<path d="M29.7622 34.254C29.7622 36.8001 27.6906 38.8706 25.1445 38.8706C22.5983 38.8706 20.5267 36.8001 20.5267 34.254C20.5267 31.7078 22.5983 29.6362 25.1445 29.6362C27.6906 29.6362 29.7622 31.7078 29.7622 34.254Z" fill="#2B2B2B"/>
<path d="M26.902 5.86481L28.7883 7.35348L30.9659 4.59396L25.1448 0L19.3236 4.59396L21.5012 7.35348L23.387 5.86528V15.1889H19.0603V18.704H23.387V26.3133C23.9529 26.1868 24.5411 26.1211 25.1446 26.1211C25.748 26.1211 26.3362 26.1868 26.9022 26.3133V18.704H31.2294V15.1889H26.9022L26.902 5.86481Z" fill="#2B2B2B"/>
<path d="M54.1274 36.0117L52.6393 37.8975L55.3987 40.075L59.9927 34.2538L55.3987 28.4325L52.6393 30.61L54.1281 32.4966H44.2098V28.1692H40.6946V32.4966H33.0854C33.212 33.0625 33.2776 33.6507 33.2776 34.2542C33.2776 34.8576 33.212 35.4458 33.0854 36.0117H40.6946V40.3383H44.2098V36.0117H54.1274Z" fill="#2B2B2B"/>
<path d="M20.7751 41.1086C19.7768 40.4723 18.9273 39.6228 18.2887 38.6245L12.907 44.0062L12.9069 44.0063L9.84707 40.9464L7.3615 43.432L10.422 46.4925L10.4219 46.4926L3.77991 53.1333L3.77956 53.1337L3.49835 50.7471L0.00732422 51.1586L0.875217 58.5232L8.23994 59.391L8.65133 55.9001L6.26501 55.6189L6.26524 55.6187L12.907 48.9778L12.9071 48.9777L15.9664 52.0369L18.4519 49.5514L15.3921 46.4916L15.3922 46.4914L20.7751 41.1086Z" fill="#2B2B2B"/>
<path d="M28.2451 48.7356L26.1771 51.4604L24.1091 48.7356L21.309 50.8606L23.9706 54.3678L21.309 57.875L24.1091 60L26.1771 57.2752L28.2451 60L31.0451 57.875L28.3836 54.3678L31.0451 50.8606L28.2451 48.7356Z" fill="#2B2B2B"/>
<path d="M59.9423 44.5726L56.9964 42.6548L55.2378 45.3566L53.4554 42.627L50.5122 44.5488L53.4811 49.0957L53.4696 53.7776L56.9848 53.7861L56.9963 49.0982L59.9423 44.5726Z" fill="#2B2B2B"/>
<path d="M42.7504 7.38183H39.4463L42.8033 2.64176L42.8066 0H34.8006V3.51516H37.8772L34.5194 8.25629V10.897H42.7504V7.38183Z" fill="#2B2B2B"/>
</g>
<defs>
<clipPath id="clip0_2498_397">
<rect width="60" height="60" fill="white"/>
</clipPath>
</defs>
</svg>
