<svg width="60" height="61" viewBox="0 0 60 61" fill="none" xmlns="http://www.w3.org/2000/svg">
<path d="M38.9475 36.885C37.9741 35.3439 37.4711 33.5525 37.5 31.73C37.529 29.9075 38.0885 28.1329 39.1103 26.6234C40.132 25.114 41.5717 23.9352 43.253 23.2312C44.9343 22.5272 46.7843 22.3285 48.5768 22.6596C50.3692 22.9907 52.0262 23.8371 53.3451 25.0953C54.6639 26.3535 55.5874 27.9688 56.0025 29.7437C56.4176 31.5185 56.3063 33.3759 55.6823 35.0885C55.0582 36.8011 53.9484 38.2946 52.4888 39.3862C57.045 41.8988 60 46.725 60 52.5V58.125C60 58.6223 59.8025 59.0992 59.4508 59.4508C59.0992 59.8025 58.6223 60 58.125 60C57.6277 60 57.1508 59.8025 56.7992 59.4508C56.4475 59.0992 56.25 58.6223 56.25 58.125V52.5C56.25 46.035 51.465 41.25 45 41.25C41.5875 41.25 40.1325 41.175 38.2312 40.7925C33.5437 39.84 29.4825 37.0425 24.7875 31.17C24.6199 30.9796 24.4926 30.7572 24.4134 30.5162C24.3343 30.2752 24.3048 30.0206 24.3269 29.7679C24.3489 29.5152 24.422 29.2696 24.5418 29.0459C24.6615 28.8223 24.8254 28.6253 25.0235 28.4668C25.2215 28.3084 25.4497 28.1917 25.6942 28.124C25.9387 28.0563 26.1943 28.0389 26.4457 28.0728C26.6971 28.1068 26.939 28.1914 27.1567 28.3215C27.3745 28.4517 27.5635 28.6247 27.7125 28.83C31.0875 33.045 33.9113 35.355 36.84 36.4912C37.4213 36.6862 38.1337 36.8025 38.9475 36.885ZM45.6412 37.365C45.9537 37.4025 46.2675 37.445 46.5825 37.4925L46.875 37.5C48.3129 37.4968 49.695 36.9431 50.7373 35.9526C51.7796 34.9621 52.4031 33.6101 52.4796 32.1742C52.556 30.7384 52.0798 29.3278 51.1486 28.2322C50.2174 27.1365 48.9019 26.4391 47.4725 26.2832C46.0431 26.1273 44.6083 26.5246 43.4627 27.3937C42.3172 28.2628 41.548 29.5375 41.3131 30.9561C41.0782 32.3746 41.3955 33.8293 42.1997 35.0212C43.004 36.2132 44.2379 37.0519 45.6412 37.365ZM36.675 44.8875C37.1723 44.8875 37.6492 45.085 38.0008 45.4367C38.3525 45.7883 38.55 46.2652 38.55 46.7625C38.522 47.0576 38.459 47.3484 38.3625 47.6287C37.6912 49.0537 37.5 50.5312 37.5 52.5112V58.1362C37.5 58.6335 37.3025 59.1104 36.9508 59.4621C36.5992 59.8137 36.1223 60.0112 35.625 60.0112C35.1277 60.0112 34.6508 59.8137 34.2992 59.4621C33.9475 59.1104 33.75 58.6335 33.75 58.1362V52.5112C33.75 50.0475 34.02 48.0638 34.9012 46.1512C35.0285 45.7822 35.2679 45.462 35.5858 45.2354C35.9038 45.0089 36.2846 44.8873 36.675 44.8875ZM22.3425 21.645C22.6351 22.0345 22.7646 22.5226 22.7036 23.0059C22.6427 23.4892 22.396 23.9298 22.0158 24.2344C21.6357 24.539 21.1519 24.6837 20.6669 24.6379C20.1819 24.592 19.7338 24.3592 19.4175 23.9887L11.6625 14.295C11.4949 14.1046 11.3676 13.8822 11.2884 13.6412C11.2093 13.4002 11.1798 13.1456 11.2019 12.8929C11.2239 12.6402 11.297 12.3946 11.4168 12.1709C11.5365 11.9473 11.7004 11.7503 11.8985 11.5918C12.0965 11.4334 12.3247 11.3167 12.5692 11.249C12.8137 11.1813 13.0693 11.1639 13.3207 11.1978C13.5721 11.2318 13.814 11.3164 14.0317 11.4465C14.2495 11.5767 14.4385 11.7497 14.5875 11.955L22.3425 21.645ZM3.75 41.25H24.375C24.8723 41.25 25.3492 41.4475 25.7008 41.7992C26.0525 42.1508 26.25 42.6277 26.25 43.125C26.25 43.6223 26.0525 44.0992 25.7008 44.4508C25.3492 44.8025 24.8723 45 24.375 45H1.875C1.37772 45 0.900806 44.8025 0.549175 44.4508C0.197544 44.0992 0 43.6223 0 43.125V1.875C0 1.37772 0.197544 0.900806 0.549175 0.549175C0.900806 0.197544 1.37772 0 1.875 0L46.875 0C47.3723 0 47.8492 0.197544 48.2008 0.549175C48.5525 0.900806 48.75 1.37772 48.75 1.875V13.125C48.75 13.6223 48.5525 14.0992 48.2008 14.4508C47.8492 14.8025 47.3723 15 46.875 15C46.3777 15 45.9008 14.8025 45.5492 14.4508C45.1975 14.0992 45 13.6223 45 13.125V3.75H3.75V41.25Z" fill="#2B2B2B"/>
</svg>
